<mxfile host="Electron" modified="2023-12-15T17:40:10.249Z" agent="Mozilla/5.0 (Windows NT 10.0; Win64; x64) AppleWebKit/537.36 (KHTML, like Gecko) draw.io/22.1.2 Chrome/114.0.5735.289 Electron/25.9.4 Safari/537.36" etag="GgNvXbRlvOMyfLB02CCd" version="22.1.2" type="device">
  <diagram name="Страница — 1" id="W0GnPXuB-DNshvomtU0t">
    <mxGraphModel dx="1569" dy="775" grid="1" gridSize="10" guides="1" tooltips="1" connect="1" arrows="1" fold="1" page="1" pageScale="1" pageWidth="1169" pageHeight="1654" math="0" shadow="0">
      <root>
        <mxCell id="0" />
        <mxCell id="1" parent="0" />
        <mxCell id="O-G9n-qDXh0_fqaKKesa-18" value="&lt;div style=&quot;text-align: center;&quot;&gt;&lt;span style=&quot;background-color: initial;&quot;&gt;«subsystem»&amp;nbsp;&lt;/span&gt;&lt;b style=&quot;background-color: initial;&quot;&gt;BusStation&lt;/b&gt;&lt;/div&gt;&lt;hr style=&quot;text-align: center;&quot;&gt;&lt;p style=&quot;margin:0px;margin-left:8px;&quot;&gt;&lt;br&gt;&lt;/p&gt;" style="align=left;overflow=fill;html=1;dropTarget=0;whiteSpace=wrap;" vertex="1" parent="1">
          <mxGeometry x="484" y="570" width="310" height="170" as="geometry" />
        </mxCell>
        <mxCell id="O-G9n-qDXh0_fqaKKesa-19" value="" style="shape=component;jettyWidth=8;jettyHeight=4;" vertex="1" parent="O-G9n-qDXh0_fqaKKesa-18">
          <mxGeometry x="1" width="20" height="20" relative="1" as="geometry">
            <mxPoint x="-24" y="4" as="offset" />
          </mxGeometry>
        </mxCell>
        <mxCell id="O-G9n-qDXh0_fqaKKesa-15" value="&lt;div style=&quot;text-align: center;&quot;&gt;&lt;span style=&quot;background-color: initial;&quot;&gt;«subsystem»&amp;nbsp;&lt;/span&gt;&lt;b style=&quot;background-color: initial;&quot;&gt;Server&lt;/b&gt;&lt;/div&gt;&lt;hr style=&quot;text-align: center;&quot;&gt;&lt;p style=&quot;margin:0px;margin-left:8px;&quot;&gt;&lt;br&gt;&lt;/p&gt;" style="align=left;overflow=fill;html=1;dropTarget=0;whiteSpace=wrap;" vertex="1" parent="1">
          <mxGeometry x="484" y="50" width="606" height="470" as="geometry" />
        </mxCell>
        <mxCell id="O-G9n-qDXh0_fqaKKesa-16" value="" style="shape=component;jettyWidth=8;jettyHeight=4;" vertex="1" parent="O-G9n-qDXh0_fqaKKesa-15">
          <mxGeometry x="1" width="20" height="20" relative="1" as="geometry">
            <mxPoint x="-24" y="4" as="offset" />
          </mxGeometry>
        </mxCell>
        <mxCell id="O-G9n-qDXh0_fqaKKesa-20" value="&lt;div style=&quot;text-align: center;&quot;&gt;&lt;b style=&quot;background-color: initial;&quot;&gt;MobileApp&lt;/b&gt;&lt;br&gt;&lt;/div&gt;&lt;div style=&quot;text-align: center;&quot;&gt;&amp;lt;&amp;lt;application&amp;gt;&amp;gt;&lt;span style=&quot;background-color: initial;&quot;&gt;&lt;b&gt;&lt;br&gt;&lt;/b&gt;&lt;/span&gt;&lt;/div&gt;&lt;hr style=&quot;text-align: center;&quot;&gt;&lt;p style=&quot;margin:0px;margin-left:8px;&quot;&gt;&lt;br&gt;&lt;/p&gt;" style="align=left;overflow=fill;html=1;dropTarget=0;whiteSpace=wrap;" vertex="1" parent="1">
          <mxGeometry x="118" y="44" width="150" height="231" as="geometry" />
        </mxCell>
        <mxCell id="O-G9n-qDXh0_fqaKKesa-21" value="" style="shape=component;jettyWidth=8;jettyHeight=4;" vertex="1" parent="O-G9n-qDXh0_fqaKKesa-20">
          <mxGeometry x="1" width="20" height="20" relative="1" as="geometry">
            <mxPoint x="-24" y="4" as="offset" />
          </mxGeometry>
        </mxCell>
        <mxCell id="O-G9n-qDXh0_fqaKKesa-25" value="PaymentProvider" style="html=1;dropTarget=0;whiteSpace=wrap;" vertex="1" parent="1">
          <mxGeometry x="509" y="420" width="150" height="90" as="geometry" />
        </mxCell>
        <mxCell id="O-G9n-qDXh0_fqaKKesa-26" value="" style="shape=module;jettyWidth=8;jettyHeight=4;" vertex="1" parent="O-G9n-qDXh0_fqaKKesa-25">
          <mxGeometry x="1" width="20" height="20" relative="1" as="geometry">
            <mxPoint x="-27" y="7" as="offset" />
          </mxGeometry>
        </mxCell>
        <mxCell id="O-G9n-qDXh0_fqaKKesa-32" value="" style="ellipse;whiteSpace=wrap;html=1;align=center;aspect=fixed;fillColor=none;strokeColor=none;resizable=0;perimeter=centerPerimeter;rotatable=0;allowArrows=0;points=[];outlineConnect=1;" vertex="1" parent="1">
          <mxGeometry x="600" y="270" width="10" height="10" as="geometry" />
        </mxCell>
        <mxCell id="O-G9n-qDXh0_fqaKKesa-35" value="" style="ellipse;whiteSpace=wrap;html=1;align=center;aspect=fixed;fillColor=none;strokeColor=none;resizable=0;perimeter=centerPerimeter;rotatable=0;allowArrows=0;points=[];outlineConnect=1;" vertex="1" parent="1">
          <mxGeometry x="694" y="454" width="10" height="10" as="geometry" />
        </mxCell>
        <mxCell id="O-G9n-qDXh0_fqaKKesa-37" value="" style="ellipse;whiteSpace=wrap;html=1;align=center;aspect=fixed;fillColor=none;strokeColor=none;resizable=0;perimeter=centerPerimeter;rotatable=0;allowArrows=0;points=[];outlineConnect=1;" vertex="1" parent="1">
          <mxGeometry x="689" y="454" width="10" height="10" as="geometry" />
        </mxCell>
        <mxCell id="O-G9n-qDXh0_fqaKKesa-39" value="TicketProvider" style="html=1;dropTarget=0;whiteSpace=wrap;" vertex="1" parent="1">
          <mxGeometry x="554" y="220" width="270" height="170" as="geometry" />
        </mxCell>
        <mxCell id="O-G9n-qDXh0_fqaKKesa-40" value="" style="shape=module;jettyWidth=8;jettyHeight=4;" vertex="1" parent="O-G9n-qDXh0_fqaKKesa-39">
          <mxGeometry x="1" width="20" height="20" relative="1" as="geometry">
            <mxPoint x="-27" y="7" as="offset" />
          </mxGeometry>
        </mxCell>
        <mxCell id="O-G9n-qDXh0_fqaKKesa-55" value="CustomerProvider" style="html=1;dropTarget=0;whiteSpace=wrap;" vertex="1" parent="1">
          <mxGeometry x="554" y="80" width="150" height="130" as="geometry" />
        </mxCell>
        <mxCell id="O-G9n-qDXh0_fqaKKesa-56" value="" style="shape=module;jettyWidth=8;jettyHeight=4;" vertex="1" parent="O-G9n-qDXh0_fqaKKesa-55">
          <mxGeometry x="1" width="20" height="20" relative="1" as="geometry">
            <mxPoint x="-27" y="9" as="offset" />
          </mxGeometry>
        </mxCell>
        <mxCell id="O-G9n-qDXh0_fqaKKesa-57" style="edgeStyle=orthogonalEdgeStyle;rounded=0;orthogonalLoop=1;jettySize=auto;html=1;exitX=0.5;exitY=1;exitDx=0;exitDy=0;" edge="1" parent="1" source="O-G9n-qDXh0_fqaKKesa-25" target="O-G9n-qDXh0_fqaKKesa-25">
          <mxGeometry relative="1" as="geometry" />
        </mxCell>
        <mxCell id="O-G9n-qDXh0_fqaKKesa-67" value="" style="html=1;rounded=0;" vertex="1" parent="1">
          <mxGeometry x="644" y="450" width="30" height="30" as="geometry" />
        </mxCell>
        <mxCell id="O-G9n-qDXh0_fqaKKesa-68" value="" style="endArrow=none;html=1;rounded=0;align=center;verticalAlign=top;endFill=0;labelBackgroundColor=none;endSize=2;" edge="1" source="O-G9n-qDXh0_fqaKKesa-67" target="O-G9n-qDXh0_fqaKKesa-69" parent="1">
          <mxGeometry relative="1" as="geometry" />
        </mxCell>
        <mxCell id="O-G9n-qDXh0_fqaKKesa-74" value="buyTicket" style="edgeLabel;html=1;align=center;verticalAlign=middle;resizable=0;points=[];" vertex="1" connectable="0" parent="O-G9n-qDXh0_fqaKKesa-68">
          <mxGeometry x="0.0606" y="4" relative="1" as="geometry">
            <mxPoint x="18" y="19" as="offset" />
          </mxGeometry>
        </mxCell>
        <mxCell id="O-G9n-qDXh0_fqaKKesa-69" value="" style="ellipse;html=1;fontSize=11;align=center;fillColor=none;points=[];aspect=fixed;resizable=0;verticalAlign=bottom;labelPosition=center;verticalLabelPosition=top;flipH=1;" vertex="1" parent="1">
          <mxGeometry x="696" y="461" width="8" height="8" as="geometry" />
        </mxCell>
        <mxCell id="O-G9n-qDXh0_fqaKKesa-82" value="Use" style="endArrow=open;endSize=12;dashed=1;html=1;rounded=0;exitX=0.881;exitY=0.463;exitDx=0;exitDy=0;exitPerimeter=0;" edge="1" parent="1" source="O-G9n-qDXh0_fqaKKesa-85" target="O-G9n-qDXh0_fqaKKesa-69">
          <mxGeometry width="160" relative="1" as="geometry">
            <mxPoint x="697.74" y="284.26" as="sourcePoint" />
            <mxPoint x="724" y="470" as="targetPoint" />
            <Array as="points">
              <mxPoint x="884" y="365" />
              <mxPoint x="884" y="465" />
              <mxPoint x="764" y="465" />
            </Array>
          </mxGeometry>
        </mxCell>
        <mxCell id="O-G9n-qDXh0_fqaKKesa-83" value="" style="html=1;rounded=0;" vertex="1" parent="1">
          <mxGeometry x="809" y="350" width="30" height="30" as="geometry" />
        </mxCell>
        <mxCell id="O-G9n-qDXh0_fqaKKesa-84" value="" style="endArrow=none;html=1;rounded=0;align=center;verticalAlign=top;endFill=0;labelBackgroundColor=none;endSize=2;" edge="1" source="O-G9n-qDXh0_fqaKKesa-83" target="O-G9n-qDXh0_fqaKKesa-85" parent="1">
          <mxGeometry relative="1" as="geometry" />
        </mxCell>
        <mxCell id="O-G9n-qDXh0_fqaKKesa-85" value="" style="shape=requiredInterface;html=1;fontSize=11;align=center;fillColor=none;points=[];aspect=fixed;resizable=0;verticalAlign=bottom;labelPosition=center;verticalLabelPosition=top;flipH=1;" vertex="1" parent="1">
          <mxGeometry x="864" y="360" width="5" height="10" as="geometry" />
        </mxCell>
        <mxCell id="O-G9n-qDXh0_fqaKKesa-86" value="" style="html=1;rounded=0;" vertex="1" parent="1">
          <mxGeometry x="809" y="316" width="30" height="30" as="geometry" />
        </mxCell>
        <mxCell id="O-G9n-qDXh0_fqaKKesa-87" value="" style="endArrow=none;html=1;rounded=0;align=center;verticalAlign=top;endFill=0;labelBackgroundColor=none;endSize=2;" edge="1" source="O-G9n-qDXh0_fqaKKesa-86" target="O-G9n-qDXh0_fqaKKesa-88" parent="1">
          <mxGeometry relative="1" as="geometry" />
        </mxCell>
        <mxCell id="O-G9n-qDXh0_fqaKKesa-99" value="checkTicket" style="edgeLabel;html=1;align=center;verticalAlign=middle;resizable=0;points=[];" vertex="1" connectable="0" parent="O-G9n-qDXh0_fqaKKesa-87">
          <mxGeometry x="-0.3737" y="-5" relative="1" as="geometry">
            <mxPoint x="23" y="10" as="offset" />
          </mxGeometry>
        </mxCell>
        <mxCell id="O-G9n-qDXh0_fqaKKesa-98" style="edgeStyle=orthogonalEdgeStyle;rounded=0;orthogonalLoop=1;jettySize=auto;html=1;entryX=0;entryY=0.5;entryDx=0;entryDy=0;endArrow=none;endFill=0;" edge="1" parent="1" source="O-G9n-qDXh0_fqaKKesa-88" target="O-G9n-qDXh0_fqaKKesa-95">
          <mxGeometry relative="1" as="geometry" />
        </mxCell>
        <mxCell id="O-G9n-qDXh0_fqaKKesa-88" value="" style="ellipse;html=1;fontSize=11;align=center;fillColor=none;points=[];aspect=fixed;resizable=0;verticalAlign=bottom;labelPosition=center;verticalLabelPosition=top;flipH=1;" vertex="1" parent="1">
          <mxGeometry x="861" y="327" width="8" height="8" as="geometry" />
        </mxCell>
        <mxCell id="O-G9n-qDXh0_fqaKKesa-95" value="" style="html=1;rounded=0;" vertex="1" parent="1">
          <mxGeometry x="1069" y="316" width="30" height="30" as="geometry" />
        </mxCell>
        <mxCell id="O-G9n-qDXh0_fqaKKesa-96" value="" style="endArrow=none;html=1;rounded=0;align=center;verticalAlign=top;endFill=0;labelBackgroundColor=none;endSize=2;" edge="1" source="O-G9n-qDXh0_fqaKKesa-95" target="O-G9n-qDXh0_fqaKKesa-97" parent="1">
          <mxGeometry relative="1" as="geometry" />
        </mxCell>
        <mxCell id="O-G9n-qDXh0_fqaKKesa-97" value="" style="ellipse;html=1;fontSize=11;align=center;fillColor=none;points=[];aspect=fixed;resizable=0;verticalAlign=bottom;labelPosition=center;verticalLabelPosition=top;flipH=1;" vertex="1" parent="1">
          <mxGeometry x="1121" y="327" width="8" height="8" as="geometry" />
        </mxCell>
        <mxCell id="O-G9n-qDXh0_fqaKKesa-102" value="Validator" style="html=1;dropTarget=0;whiteSpace=wrap;" vertex="1" parent="1">
          <mxGeometry x="569" y="620" width="135" height="90" as="geometry" />
        </mxCell>
        <mxCell id="O-G9n-qDXh0_fqaKKesa-103" value="" style="shape=module;jettyWidth=8;jettyHeight=4;" vertex="1" parent="O-G9n-qDXh0_fqaKKesa-102">
          <mxGeometry x="1" width="20" height="20" relative="1" as="geometry">
            <mxPoint x="-27" y="7" as="offset" />
          </mxGeometry>
        </mxCell>
        <mxCell id="O-G9n-qDXh0_fqaKKesa-104" value="" style="html=1;rounded=0;" vertex="1" parent="1">
          <mxGeometry x="474" y="655" width="30" height="30" as="geometry" />
        </mxCell>
        <mxCell id="O-G9n-qDXh0_fqaKKesa-105" value="" style="endArrow=none;html=1;rounded=0;align=center;verticalAlign=top;endFill=0;labelBackgroundColor=none;endSize=2;exitX=0;exitY=0.5;exitDx=0;exitDy=0;" edge="1" source="O-G9n-qDXh0_fqaKKesa-104" target="O-G9n-qDXh0_fqaKKesa-106" parent="1">
          <mxGeometry relative="1" as="geometry">
            <mxPoint x="414" y="670" as="sourcePoint" />
            <Array as="points" />
          </mxGeometry>
        </mxCell>
        <mxCell id="O-G9n-qDXh0_fqaKKesa-256" value="QR-Code" style="edgeLabel;html=1;align=center;verticalAlign=middle;resizable=0;points=[];" vertex="1" connectable="0" parent="O-G9n-qDXh0_fqaKKesa-105">
          <mxGeometry x="0.1525" y="1" relative="1" as="geometry">
            <mxPoint x="-9" y="28" as="offset" />
          </mxGeometry>
        </mxCell>
        <mxCell id="O-G9n-qDXh0_fqaKKesa-106" value="" style="ellipse;html=1;fontSize=11;align=center;fillColor=none;points=[];aspect=fixed;resizable=0;verticalAlign=bottom;labelPosition=center;verticalLabelPosition=top;flipH=1;" vertex="1" parent="1">
          <mxGeometry x="454" y="666" width="8" height="8" as="geometry" />
        </mxCell>
        <mxCell id="O-G9n-qDXh0_fqaKKesa-110" value="" style="html=1;rounded=0;" vertex="1" parent="1">
          <mxGeometry x="554" y="655" width="30" height="30" as="geometry" />
        </mxCell>
        <mxCell id="O-G9n-qDXh0_fqaKKesa-111" value="" style="endArrow=none;html=1;rounded=0;align=center;verticalAlign=top;endFill=0;labelBackgroundColor=none;endSize=2;exitX=0;exitY=0.5;exitDx=0;exitDy=0;" edge="1" source="O-G9n-qDXh0_fqaKKesa-110" target="O-G9n-qDXh0_fqaKKesa-112" parent="1">
          <mxGeometry relative="1" as="geometry">
            <mxPoint x="564" y="670" as="sourcePoint" />
          </mxGeometry>
        </mxCell>
        <mxCell id="O-G9n-qDXh0_fqaKKesa-113" style="edgeStyle=orthogonalEdgeStyle;rounded=0;orthogonalLoop=1;jettySize=auto;html=1;endArrow=none;endFill=0;" edge="1" parent="1" source="O-G9n-qDXh0_fqaKKesa-112" target="O-G9n-qDXh0_fqaKKesa-104">
          <mxGeometry relative="1" as="geometry" />
        </mxCell>
        <mxCell id="O-G9n-qDXh0_fqaKKesa-112" value="" style="ellipse;html=1;fontSize=11;align=center;fillColor=none;points=[];aspect=fixed;resizable=0;verticalAlign=bottom;labelPosition=center;verticalLabelPosition=top;flipH=1;" vertex="1" parent="1">
          <mxGeometry x="534" y="666" width="8" height="8" as="geometry" />
        </mxCell>
        <mxCell id="O-G9n-qDXh0_fqaKKesa-114" value="" style="html=1;rounded=0;" vertex="1" parent="1">
          <mxGeometry x="689" y="655" width="30" height="30" as="geometry" />
        </mxCell>
        <mxCell id="O-G9n-qDXh0_fqaKKesa-115" value="" style="endArrow=none;html=1;rounded=0;align=center;verticalAlign=top;endFill=0;labelBackgroundColor=none;endSize=2;" edge="1" source="O-G9n-qDXh0_fqaKKesa-114" target="O-G9n-qDXh0_fqaKKesa-116" parent="1">
          <mxGeometry relative="1" as="geometry" />
        </mxCell>
        <mxCell id="O-G9n-qDXh0_fqaKKesa-116" value="" style="shape=requiredInterface;html=1;fontSize=11;align=center;fillColor=none;points=[];aspect=fixed;resizable=0;verticalAlign=bottom;labelPosition=center;verticalLabelPosition=top;flipH=1;" vertex="1" parent="1">
          <mxGeometry x="744" y="665" width="5" height="10" as="geometry" />
        </mxCell>
        <mxCell id="O-G9n-qDXh0_fqaKKesa-117" value="" style="html=1;rounded=0;" vertex="1" parent="1">
          <mxGeometry x="784" y="655" width="30" height="30" as="geometry" />
        </mxCell>
        <mxCell id="O-G9n-qDXh0_fqaKKesa-118" value="" style="endArrow=none;html=1;rounded=0;align=center;verticalAlign=top;endFill=0;labelBackgroundColor=none;endSize=2;" edge="1" source="O-G9n-qDXh0_fqaKKesa-117" target="O-G9n-qDXh0_fqaKKesa-119" parent="1">
          <mxGeometry relative="1" as="geometry" />
        </mxCell>
        <mxCell id="O-G9n-qDXh0_fqaKKesa-119" value="" style="shape=requiredInterface;html=1;fontSize=11;align=center;fillColor=none;points=[];aspect=fixed;resizable=0;verticalAlign=bottom;labelPosition=center;verticalLabelPosition=top;flipH=1;" vertex="1" parent="1">
          <mxGeometry x="839" y="665" width="5" height="10" as="geometry" />
        </mxCell>
        <mxCell id="O-G9n-qDXh0_fqaKKesa-121" value="Use" style="endArrow=open;endSize=12;dashed=1;html=1;rounded=0;exitX=0.97;exitY=0.685;exitDx=0;exitDy=0;exitPerimeter=0;entryX=0.097;entryY=0.676;entryDx=0;entryDy=0;entryPerimeter=0;" edge="1" parent="1" source="O-G9n-qDXh0_fqaKKesa-119" target="O-G9n-qDXh0_fqaKKesa-97">
          <mxGeometry width="160" relative="1" as="geometry">
            <mxPoint x="824" y="590" as="sourcePoint" />
            <mxPoint x="984" y="590" as="targetPoint" />
            <Array as="points">
              <mxPoint x="984" y="672" />
              <mxPoint x="1150" y="670" />
              <mxPoint x="1150" y="530" />
              <mxPoint x="1150" y="332" />
            </Array>
          </mxGeometry>
        </mxCell>
        <mxCell id="O-G9n-qDXh0_fqaKKesa-122" style="edgeStyle=orthogonalEdgeStyle;rounded=0;orthogonalLoop=1;jettySize=auto;html=1;entryX=1;entryY=0.5;entryDx=0;entryDy=0;endArrow=none;endFill=0;" edge="1" parent="1" source="O-G9n-qDXh0_fqaKKesa-117" target="O-G9n-qDXh0_fqaKKesa-114">
          <mxGeometry relative="1" as="geometry" />
        </mxCell>
        <mxCell id="O-G9n-qDXh0_fqaKKesa-123" value="" style="html=1;rounded=0;" vertex="1" parent="1">
          <mxGeometry x="464" y="140" width="30" height="30" as="geometry" />
        </mxCell>
        <mxCell id="O-G9n-qDXh0_fqaKKesa-124" value="" style="endArrow=none;html=1;rounded=0;align=center;verticalAlign=top;endFill=0;labelBackgroundColor=none;endSize=2;exitX=0;exitY=0.5;exitDx=0;exitDy=0;" edge="1" source="O-G9n-qDXh0_fqaKKesa-139" target="O-G9n-qDXh0_fqaKKesa-125" parent="1">
          <mxGeometry relative="1" as="geometry">
            <mxPoint x="474" y="155" as="sourcePoint" />
          </mxGeometry>
        </mxCell>
        <mxCell id="O-G9n-qDXh0_fqaKKesa-125" value="" style="ellipse;html=1;fontSize=11;align=center;fillColor=none;points=[];aspect=fixed;resizable=0;verticalAlign=bottom;labelPosition=center;verticalLabelPosition=top;flipH=1;" vertex="1" parent="1">
          <mxGeometry x="445" y="151" width="8" height="8" as="geometry" />
        </mxCell>
        <mxCell id="O-G9n-qDXh0_fqaKKesa-129" style="edgeStyle=orthogonalEdgeStyle;rounded=0;orthogonalLoop=1;jettySize=auto;html=1;entryX=1;entryY=0.5;entryDx=0;entryDy=0;endArrow=none;endFill=0;exitX=0.979;exitY=0.56;exitDx=0;exitDy=0;exitPerimeter=0;" edge="1" parent="1" source="O-G9n-qDXh0_fqaKKesa-132" target="O-G9n-qDXh0_fqaKKesa-123">
          <mxGeometry relative="1" as="geometry">
            <mxPoint x="564" y="155" as="sourcePoint" />
          </mxGeometry>
        </mxCell>
        <mxCell id="O-G9n-qDXh0_fqaKKesa-130" value="" style="html=1;rounded=0;" vertex="1" parent="1">
          <mxGeometry x="534" y="140" width="30" height="30" as="geometry" />
        </mxCell>
        <mxCell id="O-G9n-qDXh0_fqaKKesa-131" value="" style="endArrow=none;html=1;rounded=0;align=center;verticalAlign=top;endFill=0;labelBackgroundColor=none;endSize=2;exitX=0;exitY=0.5;exitDx=0;exitDy=0;" edge="1" source="O-G9n-qDXh0_fqaKKesa-130" target="O-G9n-qDXh0_fqaKKesa-132" parent="1">
          <mxGeometry relative="1" as="geometry">
            <mxPoint x="544" y="155" as="sourcePoint" />
          </mxGeometry>
        </mxCell>
        <mxCell id="O-G9n-qDXh0_fqaKKesa-133" value="getCustomer" style="edgeLabel;html=1;align=center;verticalAlign=middle;resizable=0;points=[];" vertex="1" connectable="0" parent="O-G9n-qDXh0_fqaKKesa-131">
          <mxGeometry x="0.4429" y="-1" relative="1" as="geometry">
            <mxPoint x="-7" y="26" as="offset" />
          </mxGeometry>
        </mxCell>
        <mxCell id="O-G9n-qDXh0_fqaKKesa-132" value="" style="ellipse;html=1;fontSize=11;align=center;fillColor=none;points=[];aspect=fixed;resizable=0;verticalAlign=bottom;labelPosition=center;verticalLabelPosition=top;flipH=1;" vertex="1" parent="1">
          <mxGeometry x="514" y="151" width="8" height="8" as="geometry" />
        </mxCell>
        <mxCell id="O-G9n-qDXh0_fqaKKesa-140" value="" style="endArrow=none;html=1;rounded=0;align=center;verticalAlign=top;endFill=0;labelBackgroundColor=none;endSize=2;exitX=0;exitY=0.5;exitDx=0;exitDy=0;" edge="1" parent="1" source="O-G9n-qDXh0_fqaKKesa-123" target="O-G9n-qDXh0_fqaKKesa-139">
          <mxGeometry relative="1" as="geometry">
            <mxPoint x="464" y="155" as="sourcePoint" />
            <mxPoint x="452" y="155" as="targetPoint" />
          </mxGeometry>
        </mxCell>
        <mxCell id="O-G9n-qDXh0_fqaKKesa-139" value="" style="ellipse;whiteSpace=wrap;html=1;align=center;aspect=fixed;fillColor=none;strokeColor=none;resizable=0;perimeter=centerPerimeter;rotatable=0;allowArrows=0;points=[];outlineConnect=1;" vertex="1" parent="1">
          <mxGeometry x="453" y="150" width="10" height="10" as="geometry" />
        </mxCell>
        <mxCell id="O-G9n-qDXh0_fqaKKesa-142" value="" style="html=1;rounded=0;" vertex="1" parent="1">
          <mxGeometry x="464" y="285" width="30" height="30" as="geometry" />
        </mxCell>
        <mxCell id="O-G9n-qDXh0_fqaKKesa-143" value="" style="endArrow=none;html=1;rounded=0;align=center;verticalAlign=top;endFill=0;labelBackgroundColor=none;endSize=2;exitX=0;exitY=0.5;exitDx=0;exitDy=0;" edge="1" source="O-G9n-qDXh0_fqaKKesa-146" target="O-G9n-qDXh0_fqaKKesa-144" parent="1">
          <mxGeometry relative="1" as="geometry">
            <mxPoint x="474" y="300" as="sourcePoint" />
          </mxGeometry>
        </mxCell>
        <mxCell id="O-G9n-qDXh0_fqaKKesa-144" value="" style="ellipse;html=1;fontSize=11;align=center;fillColor=none;points=[];aspect=fixed;resizable=0;verticalAlign=bottom;labelPosition=center;verticalLabelPosition=top;flipH=1;" vertex="1" parent="1">
          <mxGeometry x="445" y="296" width="8" height="8" as="geometry" />
        </mxCell>
        <mxCell id="O-G9n-qDXh0_fqaKKesa-145" value="" style="endArrow=none;html=1;rounded=0;align=center;verticalAlign=top;endFill=0;labelBackgroundColor=none;endSize=2;exitX=0;exitY=0.5;exitDx=0;exitDy=0;" edge="1" source="O-G9n-qDXh0_fqaKKesa-142" target="O-G9n-qDXh0_fqaKKesa-146" parent="1">
          <mxGeometry relative="1" as="geometry">
            <mxPoint x="464" y="300" as="sourcePoint" />
            <mxPoint x="452" y="300" as="targetPoint" />
          </mxGeometry>
        </mxCell>
        <mxCell id="O-G9n-qDXh0_fqaKKesa-146" value="" style="ellipse;whiteSpace=wrap;html=1;align=center;aspect=fixed;fillColor=none;strokeColor=none;resizable=0;perimeter=centerPerimeter;rotatable=0;allowArrows=0;points=[];outlineConnect=1;" vertex="1" parent="1">
          <mxGeometry x="453" y="295" width="10" height="10" as="geometry" />
        </mxCell>
        <mxCell id="O-G9n-qDXh0_fqaKKesa-147" value="" style="ellipse;whiteSpace=wrap;html=1;align=center;aspect=fixed;fillColor=none;strokeColor=none;resizable=0;perimeter=centerPerimeter;rotatable=0;allowArrows=0;points=[];outlineConnect=1;" vertex="1" parent="1">
          <mxGeometry x="600" y="220" width="10" height="10" as="geometry" />
        </mxCell>
        <mxCell id="O-G9n-qDXh0_fqaKKesa-148" value="" style="html=1;rounded=0;" vertex="1" parent="1">
          <mxGeometry x="464" y="235" width="30" height="30" as="geometry" />
        </mxCell>
        <mxCell id="O-G9n-qDXh0_fqaKKesa-149" value="" style="endArrow=none;html=1;rounded=0;align=center;verticalAlign=top;endFill=0;labelBackgroundColor=none;endSize=2;exitX=0;exitY=0.5;exitDx=0;exitDy=0;" edge="1" source="O-G9n-qDXh0_fqaKKesa-152" target="O-G9n-qDXh0_fqaKKesa-150" parent="1">
          <mxGeometry relative="1" as="geometry">
            <mxPoint x="474" y="250" as="sourcePoint" />
          </mxGeometry>
        </mxCell>
        <mxCell id="O-G9n-qDXh0_fqaKKesa-150" value="" style="ellipse;html=1;fontSize=11;align=center;fillColor=none;points=[];aspect=fixed;resizable=0;verticalAlign=bottom;labelPosition=center;verticalLabelPosition=top;flipH=1;" vertex="1" parent="1">
          <mxGeometry x="445" y="246" width="8" height="8" as="geometry" />
        </mxCell>
        <mxCell id="O-G9n-qDXh0_fqaKKesa-151" value="" style="endArrow=none;html=1;rounded=0;align=center;verticalAlign=top;endFill=0;labelBackgroundColor=none;endSize=2;exitX=0;exitY=0.5;exitDx=0;exitDy=0;" edge="1" source="O-G9n-qDXh0_fqaKKesa-148" target="O-G9n-qDXh0_fqaKKesa-152" parent="1">
          <mxGeometry relative="1" as="geometry">
            <mxPoint x="464" y="250" as="sourcePoint" />
            <mxPoint x="452" y="250" as="targetPoint" />
          </mxGeometry>
        </mxCell>
        <mxCell id="O-G9n-qDXh0_fqaKKesa-152" value="" style="ellipse;whiteSpace=wrap;html=1;align=center;aspect=fixed;fillColor=none;strokeColor=none;resizable=0;perimeter=centerPerimeter;rotatable=0;allowArrows=0;points=[];outlineConnect=1;" vertex="1" parent="1">
          <mxGeometry x="453" y="245" width="10" height="10" as="geometry" />
        </mxCell>
        <mxCell id="O-G9n-qDXh0_fqaKKesa-155" value="" style="html=1;rounded=0;" vertex="1" parent="1">
          <mxGeometry x="539" y="285" width="30" height="30" as="geometry" />
        </mxCell>
        <mxCell id="O-G9n-qDXh0_fqaKKesa-156" value="" style="endArrow=none;html=1;rounded=0;align=center;verticalAlign=top;endFill=0;labelBackgroundColor=none;endSize=2;exitX=0;exitY=0.5;exitDx=0;exitDy=0;" edge="1" source="O-G9n-qDXh0_fqaKKesa-155" target="O-G9n-qDXh0_fqaKKesa-157" parent="1">
          <mxGeometry relative="1" as="geometry">
            <mxPoint x="549" y="300" as="sourcePoint" />
          </mxGeometry>
        </mxCell>
        <mxCell id="O-G9n-qDXh0_fqaKKesa-166" style="edgeStyle=orthogonalEdgeStyle;rounded=0;orthogonalLoop=1;jettySize=auto;html=1;entryX=1;entryY=0.5;entryDx=0;entryDy=0;endArrow=none;endFill=0;" edge="1" parent="1" source="O-G9n-qDXh0_fqaKKesa-157" target="O-G9n-qDXh0_fqaKKesa-142">
          <mxGeometry relative="1" as="geometry" />
        </mxCell>
        <mxCell id="O-G9n-qDXh0_fqaKKesa-157" value="" style="ellipse;html=1;fontSize=11;align=center;fillColor=none;points=[];aspect=fixed;resizable=0;verticalAlign=bottom;labelPosition=center;verticalLabelPosition=top;flipH=1;" vertex="1" parent="1">
          <mxGeometry x="520" y="296" width="8" height="8" as="geometry" />
        </mxCell>
        <mxCell id="O-G9n-qDXh0_fqaKKesa-159" value="buyTicket" style="ellipse;whiteSpace=wrap;html=1;align=center;aspect=fixed;fillColor=none;strokeColor=none;resizable=0;perimeter=centerPerimeter;rotatable=0;allowArrows=0;points=[];outlineConnect=1;" vertex="1" parent="1">
          <mxGeometry x="520" y="315" width="10" height="10" as="geometry" />
        </mxCell>
        <mxCell id="O-G9n-qDXh0_fqaKKesa-160" value="" style="html=1;rounded=0;" vertex="1" parent="1">
          <mxGeometry x="539" y="235" width="30" height="30" as="geometry" />
        </mxCell>
        <mxCell id="O-G9n-qDXh0_fqaKKesa-161" value="" style="endArrow=none;html=1;rounded=0;align=center;verticalAlign=top;endFill=0;labelBackgroundColor=none;endSize=2;exitX=0;exitY=0.5;exitDx=0;exitDy=0;" edge="1" source="O-G9n-qDXh0_fqaKKesa-160" target="O-G9n-qDXh0_fqaKKesa-162" parent="1">
          <mxGeometry relative="1" as="geometry">
            <mxPoint x="534" y="250" as="sourcePoint" />
          </mxGeometry>
        </mxCell>
        <mxCell id="O-G9n-qDXh0_fqaKKesa-165" style="edgeStyle=orthogonalEdgeStyle;rounded=0;orthogonalLoop=1;jettySize=auto;html=1;entryX=1;entryY=0.5;entryDx=0;entryDy=0;endArrow=none;endFill=0;" edge="1" parent="1" source="O-G9n-qDXh0_fqaKKesa-162" target="O-G9n-qDXh0_fqaKKesa-148">
          <mxGeometry relative="1" as="geometry" />
        </mxCell>
        <mxCell id="O-G9n-qDXh0_fqaKKesa-162" value="" style="ellipse;html=1;fontSize=11;align=center;fillColor=none;points=[];aspect=fixed;resizable=0;verticalAlign=bottom;labelPosition=center;verticalLabelPosition=top;flipH=1;" vertex="1" parent="1">
          <mxGeometry x="520" y="246" width="8" height="8" as="geometry" />
        </mxCell>
        <mxCell id="O-G9n-qDXh0_fqaKKesa-164" value="searchTicket" style="ellipse;whiteSpace=wrap;html=1;align=center;aspect=fixed;fillColor=none;strokeColor=none;resizable=0;perimeter=centerPerimeter;rotatable=0;allowArrows=0;points=[];outlineConnect=1;" vertex="1" parent="1">
          <mxGeometry x="518" y="265" width="10" height="10" as="geometry" />
        </mxCell>
        <mxCell id="O-G9n-qDXh0_fqaKKesa-171" value="" style="html=1;rounded=0;" vertex="1" parent="1">
          <mxGeometry x="689" y="159" width="30" height="30" as="geometry" />
        </mxCell>
        <mxCell id="O-G9n-qDXh0_fqaKKesa-172" value="" style="endArrow=none;html=1;rounded=0;align=center;verticalAlign=top;endFill=0;labelBackgroundColor=none;endSize=2;" edge="1" source="O-G9n-qDXh0_fqaKKesa-171" target="O-G9n-qDXh0_fqaKKesa-173" parent="1">
          <mxGeometry relative="1" as="geometry" />
        </mxCell>
        <mxCell id="O-G9n-qDXh0_fqaKKesa-178" value="CheckCustomer" style="edgeLabel;html=1;align=center;verticalAlign=middle;resizable=0;points=[];" vertex="1" connectable="0" parent="O-G9n-qDXh0_fqaKKesa-172">
          <mxGeometry x="-0.0404" y="-1" relative="1" as="geometry">
            <mxPoint x="-16" y="24" as="offset" />
          </mxGeometry>
        </mxCell>
        <mxCell id="O-G9n-qDXh0_fqaKKesa-173" value="" style="ellipse;html=1;fontSize=11;align=center;fillColor=none;points=[];aspect=fixed;resizable=0;verticalAlign=bottom;labelPosition=center;verticalLabelPosition=top;flipH=1;" vertex="1" parent="1">
          <mxGeometry x="741" y="170" width="8" height="8" as="geometry" />
        </mxCell>
        <mxCell id="O-G9n-qDXh0_fqaKKesa-174" value="" style="html=1;rounded=0;" vertex="1" parent="1">
          <mxGeometry x="808" y="250" width="30" height="30" as="geometry" />
        </mxCell>
        <mxCell id="O-G9n-qDXh0_fqaKKesa-175" value="" style="endArrow=none;html=1;rounded=0;align=center;verticalAlign=top;endFill=0;labelBackgroundColor=none;endSize=2;" edge="1" source="O-G9n-qDXh0_fqaKKesa-174" target="O-G9n-qDXh0_fqaKKesa-176" parent="1">
          <mxGeometry relative="1" as="geometry" />
        </mxCell>
        <mxCell id="O-G9n-qDXh0_fqaKKesa-176" value="" style="shape=requiredInterface;html=1;fontSize=11;align=center;fillColor=none;points=[];aspect=fixed;resizable=0;verticalAlign=bottom;labelPosition=center;verticalLabelPosition=top;flipH=1;" vertex="1" parent="1">
          <mxGeometry x="863" y="260" width="5" height="10" as="geometry" />
        </mxCell>
        <mxCell id="O-G9n-qDXh0_fqaKKesa-179" value="Use" style="endArrow=open;endSize=12;dashed=1;html=1;rounded=0;exitX=0.686;exitY=0.572;exitDx=0;exitDy=0;exitPerimeter=0;" edge="1" parent="1" source="O-G9n-qDXh0_fqaKKesa-176" target="O-G9n-qDXh0_fqaKKesa-173">
          <mxGeometry width="160" relative="1" as="geometry">
            <mxPoint x="748.9999999999999" y="277.28" as="sourcePoint" />
            <mxPoint x="787.024" y="159.998" as="targetPoint" />
            <Array as="points">
              <mxPoint x="880" y="266" />
              <mxPoint x="880" y="174" />
            </Array>
          </mxGeometry>
        </mxCell>
        <mxCell id="O-G9n-qDXh0_fqaKKesa-181" value="Customer&lt;br&gt;&amp;lt;&amp;lt;application&amp;gt;&amp;gt;" style="html=1;dropTarget=0;whiteSpace=wrap;" vertex="1" parent="1">
          <mxGeometry x="119" y="454" width="150" height="245" as="geometry" />
        </mxCell>
        <mxCell id="O-G9n-qDXh0_fqaKKesa-182" value="" style="shape=module;jettyWidth=8;jettyHeight=4;" vertex="1" parent="O-G9n-qDXh0_fqaKKesa-181">
          <mxGeometry x="1" width="20" height="20" relative="1" as="geometry">
            <mxPoint x="-27" y="7" as="offset" />
          </mxGeometry>
        </mxCell>
        <mxCell id="O-G9n-qDXh0_fqaKKesa-184" value="" style="html=1;rounded=0;" vertex="1" parent="1">
          <mxGeometry x="251" y="500" width="30" height="30" as="geometry" />
        </mxCell>
        <mxCell id="O-G9n-qDXh0_fqaKKesa-185" value="" style="endArrow=none;html=1;rounded=0;align=center;verticalAlign=top;endFill=0;labelBackgroundColor=none;endSize=2;" edge="1" source="O-G9n-qDXh0_fqaKKesa-184" target="O-G9n-qDXh0_fqaKKesa-186" parent="1">
          <mxGeometry relative="1" as="geometry" />
        </mxCell>
        <mxCell id="O-G9n-qDXh0_fqaKKesa-186" value="" style="shape=requiredInterface;html=1;fontSize=11;align=center;fillColor=none;points=[];aspect=fixed;resizable=0;verticalAlign=bottom;labelPosition=center;verticalLabelPosition=top;flipH=1;" vertex="1" parent="1">
          <mxGeometry x="306" y="510" width="5" height="10" as="geometry" />
        </mxCell>
        <mxCell id="O-G9n-qDXh0_fqaKKesa-187" value="" style="html=1;rounded=0;" vertex="1" parent="1">
          <mxGeometry x="250" y="550" width="30" height="30" as="geometry" />
        </mxCell>
        <mxCell id="O-G9n-qDXh0_fqaKKesa-188" value="" style="endArrow=none;html=1;rounded=0;align=center;verticalAlign=top;endFill=0;labelBackgroundColor=none;endSize=2;" edge="1" source="O-G9n-qDXh0_fqaKKesa-187" target="O-G9n-qDXh0_fqaKKesa-189" parent="1">
          <mxGeometry relative="1" as="geometry" />
        </mxCell>
        <mxCell id="O-G9n-qDXh0_fqaKKesa-189" value="" style="shape=requiredInterface;html=1;fontSize=11;align=center;fillColor=none;points=[];aspect=fixed;resizable=0;verticalAlign=bottom;labelPosition=center;verticalLabelPosition=top;flipH=1;" vertex="1" parent="1">
          <mxGeometry x="305" y="560" width="5" height="10" as="geometry" />
        </mxCell>
        <mxCell id="O-G9n-qDXh0_fqaKKesa-190" value="" style="html=1;rounded=0;" vertex="1" parent="1">
          <mxGeometry x="251" y="599" width="30" height="30" as="geometry" />
        </mxCell>
        <mxCell id="O-G9n-qDXh0_fqaKKesa-191" value="" style="endArrow=none;html=1;rounded=0;align=center;verticalAlign=top;endFill=0;labelBackgroundColor=none;endSize=2;" edge="1" source="O-G9n-qDXh0_fqaKKesa-190" target="O-G9n-qDXh0_fqaKKesa-192" parent="1">
          <mxGeometry relative="1" as="geometry" />
        </mxCell>
        <mxCell id="O-G9n-qDXh0_fqaKKesa-192" value="" style="shape=requiredInterface;html=1;fontSize=11;align=center;fillColor=none;points=[];aspect=fixed;resizable=0;verticalAlign=bottom;labelPosition=center;verticalLabelPosition=top;flipH=1;" vertex="1" parent="1">
          <mxGeometry x="306" y="609" width="5" height="10" as="geometry" />
        </mxCell>
        <mxCell id="O-G9n-qDXh0_fqaKKesa-196" value="Use" style="endArrow=open;endSize=12;dashed=1;html=1;rounded=0;exitX=1.097;exitY=0.664;exitDx=0;exitDy=0;exitPerimeter=0;entryX=0.994;entryY=0.585;entryDx=0;entryDy=0;entryPerimeter=0;" edge="1" parent="1" source="O-G9n-qDXh0_fqaKKesa-186" target="O-G9n-qDXh0_fqaKKesa-125">
          <mxGeometry width="160" relative="1" as="geometry">
            <mxPoint x="380" y="130" as="sourcePoint" />
            <mxPoint x="650" y="155" as="targetPoint" />
          </mxGeometry>
        </mxCell>
        <mxCell id="O-G9n-qDXh0_fqaKKesa-197" value="Use" style="endArrow=open;endSize=12;dashed=1;html=1;rounded=0;exitX=0.655;exitY=0.876;exitDx=0;exitDy=0;exitPerimeter=0;entryX=0.765;entryY=0.432;entryDx=0;entryDy=0;entryPerimeter=0;" edge="1" parent="1" source="O-G9n-qDXh0_fqaKKesa-189" target="O-G9n-qDXh0_fqaKKesa-150">
          <mxGeometry width="160" relative="1" as="geometry">
            <mxPoint x="400" y="270" as="sourcePoint" />
            <mxPoint x="560" y="270" as="targetPoint" />
          </mxGeometry>
        </mxCell>
        <mxCell id="O-G9n-qDXh0_fqaKKesa-198" value="Use" style="endArrow=open;endSize=12;dashed=1;html=1;rounded=0;exitX=1.824;exitY=0.461;exitDx=0;exitDy=0;exitPerimeter=0;entryX=0.765;entryY=0.394;entryDx=0;entryDy=0;entryPerimeter=0;" edge="1" parent="1" source="O-G9n-qDXh0_fqaKKesa-192" target="O-G9n-qDXh0_fqaKKesa-144">
          <mxGeometry width="160" relative="1" as="geometry">
            <mxPoint x="360" y="290" as="sourcePoint" />
            <mxPoint x="520" y="290" as="targetPoint" />
          </mxGeometry>
        </mxCell>
        <mxCell id="O-G9n-qDXh0_fqaKKesa-207" value="Database" style="html=1;dropTarget=0;whiteSpace=wrap;" vertex="1" parent="1">
          <mxGeometry x="940" y="103" width="130" height="90" as="geometry" />
        </mxCell>
        <mxCell id="O-G9n-qDXh0_fqaKKesa-208" value="" style="shape=module;jettyWidth=8;jettyHeight=4;" vertex="1" parent="O-G9n-qDXh0_fqaKKesa-207">
          <mxGeometry x="1" width="20" height="20" relative="1" as="geometry">
            <mxPoint x="-27" y="7" as="offset" />
          </mxGeometry>
        </mxCell>
        <mxCell id="O-G9n-qDXh0_fqaKKesa-209" value="" style="html=1;rounded=0;" vertex="1" parent="1">
          <mxGeometry x="929" y="129" width="30" height="30" as="geometry" />
        </mxCell>
        <mxCell id="O-G9n-qDXh0_fqaKKesa-210" value="" style="endArrow=none;html=1;rounded=0;align=center;verticalAlign=top;endFill=0;labelBackgroundColor=none;endSize=2;exitX=0;exitY=0.5;exitDx=0;exitDy=0;" edge="1" source="O-G9n-qDXh0_fqaKKesa-209" target="O-G9n-qDXh0_fqaKKesa-211" parent="1">
          <mxGeometry relative="1" as="geometry">
            <mxPoint x="939" y="144" as="sourcePoint" />
          </mxGeometry>
        </mxCell>
        <mxCell id="O-G9n-qDXh0_fqaKKesa-211" value="" style="ellipse;html=1;fontSize=11;align=center;fillColor=none;points=[];aspect=fixed;resizable=0;verticalAlign=bottom;labelPosition=center;verticalLabelPosition=top;flipH=1;" vertex="1" parent="1">
          <mxGeometry x="910" y="140" width="8" height="8" as="geometry" />
        </mxCell>
        <mxCell id="O-G9n-qDXh0_fqaKKesa-213" value="&lt;font style=&quot;font-size: 11px;&quot;&gt;ODBC&lt;/font&gt;" style="ellipse;whiteSpace=wrap;html=1;align=center;aspect=fixed;fillColor=none;strokeColor=none;resizable=0;perimeter=centerPerimeter;rotatable=0;allowArrows=0;points=[];outlineConnect=1;" vertex="1" parent="1">
          <mxGeometry x="908" y="127" width="10" height="10" as="geometry" />
        </mxCell>
        <mxCell id="O-G9n-qDXh0_fqaKKesa-214" value="" style="html=1;rounded=0;" vertex="1" parent="1">
          <mxGeometry x="689" y="117" width="30" height="30" as="geometry" />
        </mxCell>
        <mxCell id="O-G9n-qDXh0_fqaKKesa-215" value="" style="endArrow=none;html=1;rounded=0;align=center;verticalAlign=top;endFill=0;labelBackgroundColor=none;endSize=2;" edge="1" source="O-G9n-qDXh0_fqaKKesa-214" target="O-G9n-qDXh0_fqaKKesa-216" parent="1">
          <mxGeometry relative="1" as="geometry" />
        </mxCell>
        <mxCell id="O-G9n-qDXh0_fqaKKesa-216" value="" style="shape=requiredInterface;html=1;fontSize=11;align=center;fillColor=none;points=[];aspect=fixed;resizable=0;verticalAlign=bottom;labelPosition=center;verticalLabelPosition=top;flipH=1;" vertex="1" parent="1">
          <mxGeometry x="744" y="127" width="5" height="10" as="geometry" />
        </mxCell>
        <mxCell id="O-G9n-qDXh0_fqaKKesa-217" value="Use" style="endArrow=open;endSize=12;dashed=1;html=1;rounded=0;exitX=1.107;exitY=0.453;exitDx=0;exitDy=0;exitPerimeter=0;entryX=1.083;entryY=0.692;entryDx=0;entryDy=0;entryPerimeter=0;" edge="1" parent="1" source="O-G9n-qDXh0_fqaKKesa-216" target="O-G9n-qDXh0_fqaKKesa-211">
          <mxGeometry width="160" relative="1" as="geometry">
            <mxPoint x="760" y="120" as="sourcePoint" />
            <mxPoint x="920" y="120" as="targetPoint" />
          </mxGeometry>
        </mxCell>
        <mxCell id="O-G9n-qDXh0_fqaKKesa-218" value="" style="html=1;rounded=0;" vertex="1" parent="1">
          <mxGeometry x="809" y="283" width="30" height="30" as="geometry" />
        </mxCell>
        <mxCell id="O-G9n-qDXh0_fqaKKesa-219" value="" style="endArrow=none;html=1;rounded=0;align=center;verticalAlign=top;endFill=0;labelBackgroundColor=none;endSize=2;" edge="1" source="O-G9n-qDXh0_fqaKKesa-218" target="O-G9n-qDXh0_fqaKKesa-220" parent="1">
          <mxGeometry relative="1" as="geometry" />
        </mxCell>
        <mxCell id="O-G9n-qDXh0_fqaKKesa-220" value="" style="shape=requiredInterface;html=1;fontSize=11;align=center;fillColor=none;points=[];aspect=fixed;resizable=0;verticalAlign=bottom;labelPosition=center;verticalLabelPosition=top;flipH=1;" vertex="1" parent="1">
          <mxGeometry x="864" y="293" width="5" height="10" as="geometry" />
        </mxCell>
        <mxCell id="O-G9n-qDXh0_fqaKKesa-221" value="Use" style="endArrow=open;endSize=12;dashed=1;html=1;rounded=0;exitX=0.787;exitY=0.667;exitDx=0;exitDy=0;exitPerimeter=0;entryX=0.683;entryY=1.092;entryDx=0;entryDy=0;entryPerimeter=0;" edge="1" parent="1" source="O-G9n-qDXh0_fqaKKesa-220" target="O-G9n-qDXh0_fqaKKesa-211">
          <mxGeometry width="160" relative="1" as="geometry">
            <mxPoint x="890" y="300" as="sourcePoint" />
            <mxPoint x="1050" y="300" as="targetPoint" />
            <Array as="points">
              <mxPoint x="910" y="300" />
            </Array>
          </mxGeometry>
        </mxCell>
        <mxCell id="O-G9n-qDXh0_fqaKKesa-222" value="Actor" style="shape=umlActor;verticalLabelPosition=bottom;verticalAlign=top;html=1;" vertex="1" parent="1">
          <mxGeometry x="20" y="316" width="30" height="60" as="geometry" />
        </mxCell>
        <mxCell id="O-G9n-qDXh0_fqaKKesa-227" value="" style="html=1;rounded=0;" vertex="1" parent="1">
          <mxGeometry x="107" y="550" width="30" height="30" as="geometry" />
        </mxCell>
        <mxCell id="O-G9n-qDXh0_fqaKKesa-228" value="" style="endArrow=none;html=1;rounded=0;align=center;verticalAlign=top;endFill=0;labelBackgroundColor=none;endSize=2;" edge="1" source="O-G9n-qDXh0_fqaKKesa-227" target="O-G9n-qDXh0_fqaKKesa-229" parent="1">
          <mxGeometry relative="1" as="geometry" />
        </mxCell>
        <mxCell id="O-G9n-qDXh0_fqaKKesa-229" value="" style="ellipse;html=1;fontSize=11;align=center;fillColor=none;points=[];aspect=fixed;resizable=0;verticalAlign=bottom;labelPosition=center;verticalLabelPosition=top;flipH=1;" vertex="1" parent="1">
          <mxGeometry x="79" y="560" width="8" height="8" as="geometry" />
        </mxCell>
        <mxCell id="O-G9n-qDXh0_fqaKKesa-231" value="" style="html=1;rounded=0;" vertex="1" parent="1">
          <mxGeometry x="106" y="143" width="30" height="30" as="geometry" />
        </mxCell>
        <mxCell id="O-G9n-qDXh0_fqaKKesa-232" value="" style="endArrow=none;html=1;rounded=0;align=center;verticalAlign=top;endFill=0;labelBackgroundColor=none;endSize=2;" edge="1" source="O-G9n-qDXh0_fqaKKesa-231" target="O-G9n-qDXh0_fqaKKesa-233" parent="1">
          <mxGeometry relative="1" as="geometry" />
        </mxCell>
        <mxCell id="O-G9n-qDXh0_fqaKKesa-233" value="" style="ellipse;html=1;fontSize=11;align=center;fillColor=none;points=[];aspect=fixed;resizable=0;verticalAlign=bottom;labelPosition=center;verticalLabelPosition=top;flipH=1;" vertex="1" parent="1">
          <mxGeometry x="78" y="154" width="8" height="8" as="geometry" />
        </mxCell>
        <mxCell id="O-G9n-qDXh0_fqaKKesa-234" value="Use" style="endArrow=open;endSize=12;dashed=1;html=1;rounded=0;exitX=0.5;exitY=0.5;exitDx=0;exitDy=0;exitPerimeter=0;entryX=0.875;entryY=-0.208;entryDx=0;entryDy=0;entryPerimeter=0;" edge="1" parent="1" source="O-G9n-qDXh0_fqaKKesa-222" target="O-G9n-qDXh0_fqaKKesa-229">
          <mxGeometry width="160" relative="1" as="geometry">
            <mxPoint x="90" y="350" as="sourcePoint" />
            <mxPoint x="250" y="350" as="targetPoint" />
          </mxGeometry>
        </mxCell>
        <mxCell id="O-G9n-qDXh0_fqaKKesa-235" value="Use" style="endArrow=open;endSize=12;dashed=1;html=1;rounded=0;exitX=0.5;exitY=0.5;exitDx=0;exitDy=0;exitPerimeter=0;entryX=0.472;entryY=1.097;entryDx=0;entryDy=0;entryPerimeter=0;" edge="1" parent="1" source="O-G9n-qDXh0_fqaKKesa-222" target="O-G9n-qDXh0_fqaKKesa-233">
          <mxGeometry width="160" relative="1" as="geometry">
            <mxPoint x="90" y="320" as="sourcePoint" />
            <mxPoint x="250" y="320" as="targetPoint" />
          </mxGeometry>
        </mxCell>
        <mxCell id="O-G9n-qDXh0_fqaKKesa-236" value="" style="html=1;rounded=0;" vertex="1" parent="1">
          <mxGeometry x="251" y="80" width="30" height="30" as="geometry" />
        </mxCell>
        <mxCell id="O-G9n-qDXh0_fqaKKesa-237" value="" style="endArrow=none;html=1;rounded=0;align=center;verticalAlign=top;endFill=0;labelBackgroundColor=none;endSize=2;" edge="1" source="O-G9n-qDXh0_fqaKKesa-236" target="O-G9n-qDXh0_fqaKKesa-238" parent="1">
          <mxGeometry relative="1" as="geometry" />
        </mxCell>
        <mxCell id="O-G9n-qDXh0_fqaKKesa-238" value="" style="shape=requiredInterface;html=1;fontSize=11;align=center;fillColor=none;points=[];aspect=fixed;resizable=0;verticalAlign=bottom;labelPosition=center;verticalLabelPosition=top;flipH=1;" vertex="1" parent="1">
          <mxGeometry x="306" y="90" width="5" height="10" as="geometry" />
        </mxCell>
        <mxCell id="O-G9n-qDXh0_fqaKKesa-239" value="" style="html=1;rounded=0;" vertex="1" parent="1">
          <mxGeometry x="251" y="121" width="30" height="30" as="geometry" />
        </mxCell>
        <mxCell id="O-G9n-qDXh0_fqaKKesa-240" value="" style="endArrow=none;html=1;rounded=0;align=center;verticalAlign=top;endFill=0;labelBackgroundColor=none;endSize=2;" edge="1" source="O-G9n-qDXh0_fqaKKesa-239" target="O-G9n-qDXh0_fqaKKesa-241" parent="1">
          <mxGeometry relative="1" as="geometry" />
        </mxCell>
        <mxCell id="O-G9n-qDXh0_fqaKKesa-241" value="" style="shape=requiredInterface;html=1;fontSize=11;align=center;fillColor=none;points=[];aspect=fixed;resizable=0;verticalAlign=bottom;labelPosition=center;verticalLabelPosition=top;flipH=1;" vertex="1" parent="1">
          <mxGeometry x="306" y="131" width="5" height="10" as="geometry" />
        </mxCell>
        <mxCell id="O-G9n-qDXh0_fqaKKesa-242" value="" style="html=1;rounded=0;" vertex="1" parent="1">
          <mxGeometry x="251" y="161" width="30" height="30" as="geometry" />
        </mxCell>
        <mxCell id="O-G9n-qDXh0_fqaKKesa-243" value="" style="endArrow=none;html=1;rounded=0;align=center;verticalAlign=top;endFill=0;labelBackgroundColor=none;endSize=2;" edge="1" source="O-G9n-qDXh0_fqaKKesa-242" target="O-G9n-qDXh0_fqaKKesa-244" parent="1">
          <mxGeometry relative="1" as="geometry" />
        </mxCell>
        <mxCell id="O-G9n-qDXh0_fqaKKesa-244" value="" style="shape=requiredInterface;html=1;fontSize=11;align=center;fillColor=none;points=[];aspect=fixed;resizable=0;verticalAlign=bottom;labelPosition=center;verticalLabelPosition=top;flipH=1;" vertex="1" parent="1">
          <mxGeometry x="306" y="171" width="5" height="10" as="geometry" />
        </mxCell>
        <mxCell id="O-G9n-qDXh0_fqaKKesa-245" value="" style="html=1;rounded=0;" vertex="1" parent="1">
          <mxGeometry x="250" y="210" width="30" height="30" as="geometry" />
        </mxCell>
        <mxCell id="O-G9n-qDXh0_fqaKKesa-246" value="" style="endArrow=none;html=1;rounded=0;align=center;verticalAlign=top;endFill=0;labelBackgroundColor=none;endSize=2;" edge="1" source="O-G9n-qDXh0_fqaKKesa-245" target="O-G9n-qDXh0_fqaKKesa-247" parent="1">
          <mxGeometry relative="1" as="geometry" />
        </mxCell>
        <mxCell id="O-G9n-qDXh0_fqaKKesa-247" value="" style="shape=requiredInterface;html=1;fontSize=11;align=center;fillColor=none;points=[];aspect=fixed;resizable=0;verticalAlign=bottom;labelPosition=center;verticalLabelPosition=top;flipH=1;" vertex="1" parent="1">
          <mxGeometry x="305" y="220" width="5" height="10" as="geometry" />
        </mxCell>
        <mxCell id="O-G9n-qDXh0_fqaKKesa-251" value="Use" style="endArrow=open;endSize=12;dashed=1;html=1;rounded=0;exitX=-0.051;exitY=0.821;exitDx=0;exitDy=0;exitPerimeter=0;entryX=0.649;entryY=0.412;entryDx=0;entryDy=0;entryPerimeter=0;" edge="1" parent="1" source="O-G9n-qDXh0_fqaKKesa-238" target="O-G9n-qDXh0_fqaKKesa-125">
          <mxGeometry width="160" relative="1" as="geometry">
            <mxPoint x="160" y="360" as="sourcePoint" />
            <mxPoint x="430" y="140" as="targetPoint" />
          </mxGeometry>
        </mxCell>
        <mxCell id="O-G9n-qDXh0_fqaKKesa-252" value="Use" style="endArrow=open;endSize=12;dashed=1;html=1;rounded=0;entryX=0.42;entryY=0.147;entryDx=0;entryDy=0;entryPerimeter=0;" edge="1" parent="1" source="O-G9n-qDXh0_fqaKKesa-241" target="O-G9n-qDXh0_fqaKKesa-150">
          <mxGeometry width="160" relative="1" as="geometry">
            <mxPoint x="300" y="150" as="sourcePoint" />
            <mxPoint x="460" y="150" as="targetPoint" />
          </mxGeometry>
        </mxCell>
        <mxCell id="O-G9n-qDXh0_fqaKKesa-253" value="Use" style="endArrow=open;endSize=12;dashed=1;html=1;rounded=0;exitX=0.869;exitY=0.215;exitDx=0;exitDy=0;exitPerimeter=0;entryX=0.42;entryY=0.161;entryDx=0;entryDy=0;entryPerimeter=0;" edge="1" parent="1" source="O-G9n-qDXh0_fqaKKesa-244" target="O-G9n-qDXh0_fqaKKesa-144">
          <mxGeometry width="160" relative="1" as="geometry">
            <mxPoint x="280" y="200" as="sourcePoint" />
            <mxPoint x="440" y="200" as="targetPoint" />
          </mxGeometry>
        </mxCell>
        <mxCell id="O-G9n-qDXh0_fqaKKesa-254" value="Use" style="endArrow=open;endSize=12;dashed=1;html=1;rounded=0;exitX=0.667;exitY=0.543;exitDx=0;exitDy=0;exitPerimeter=0;entryX=0.397;entryY=0.027;entryDx=0;entryDy=0;entryPerimeter=0;" edge="1" parent="1" source="O-G9n-qDXh0_fqaKKesa-247" target="O-G9n-qDXh0_fqaKKesa-106">
          <mxGeometry width="160" relative="1" as="geometry">
            <mxPoint x="230" y="370" as="sourcePoint" />
            <mxPoint x="390" y="370" as="targetPoint" />
          </mxGeometry>
        </mxCell>
        <mxCell id="O-G9n-qDXh0_fqaKKesa-257" value="Ticket" style="html=1;dropTarget=0;whiteSpace=wrap;" vertex="1" parent="1">
          <mxGeometry x="634" y="233" width="110" height="47" as="geometry" />
        </mxCell>
        <mxCell id="O-G9n-qDXh0_fqaKKesa-258" value="" style="shape=module;jettyWidth=8;jettyHeight=4;" vertex="1" parent="O-G9n-qDXh0_fqaKKesa-257">
          <mxGeometry x="1" width="20" height="20" relative="1" as="geometry">
            <mxPoint x="-27" y="7" as="offset" />
          </mxGeometry>
        </mxCell>
        <mxCell id="O-G9n-qDXh0_fqaKKesa-259" value="" style="endArrow=diamondThin;endFill=0;endSize=24;html=1;rounded=0;entryX=0;entryY=0.5;entryDx=0;entryDy=0;exitX=1;exitY=0.5;exitDx=0;exitDy=0;" edge="1" parent="1" source="O-G9n-qDXh0_fqaKKesa-160" target="O-G9n-qDXh0_fqaKKesa-257">
          <mxGeometry width="160" relative="1" as="geometry">
            <mxPoint x="160" y="360" as="sourcePoint" />
            <mxPoint x="320" y="360" as="targetPoint" />
          </mxGeometry>
        </mxCell>
        <mxCell id="O-G9n-qDXh0_fqaKKesa-260" value="0..*" style="edgeLabel;html=1;align=center;verticalAlign=middle;resizable=0;points=[];" vertex="1" connectable="0" parent="O-G9n-qDXh0_fqaKKesa-259">
          <mxGeometry x="-0.0116" y="-2" relative="1" as="geometry">
            <mxPoint x="-1" y="-10" as="offset" />
          </mxGeometry>
        </mxCell>
        <mxCell id="O-G9n-qDXh0_fqaKKesa-261" value="" style="endArrow=diamondThin;endFill=0;endSize=24;html=1;rounded=0;exitX=1;exitY=0.5;exitDx=0;exitDy=0;entryX=0;entryY=1;entryDx=0;entryDy=0;" edge="1" parent="1" source="O-G9n-qDXh0_fqaKKesa-155" target="O-G9n-qDXh0_fqaKKesa-257">
          <mxGeometry width="160" relative="1" as="geometry">
            <mxPoint x="580" y="330" as="sourcePoint" />
            <mxPoint x="740" y="330" as="targetPoint" />
          </mxGeometry>
        </mxCell>
        <mxCell id="O-G9n-qDXh0_fqaKKesa-262" value="0..*" style="edgeLabel;html=1;align=center;verticalAlign=middle;resizable=0;points=[];" vertex="1" connectable="0" parent="O-G9n-qDXh0_fqaKKesa-261">
          <mxGeometry x="0.0545" y="-2" relative="1" as="geometry">
            <mxPoint x="1" y="9" as="offset" />
          </mxGeometry>
        </mxCell>
        <mxCell id="O-G9n-qDXh0_fqaKKesa-263" value="" style="endArrow=diamondThin;endFill=0;endSize=24;html=1;rounded=0;exitX=0;exitY=0.5;exitDx=0;exitDy=0;entryX=1;entryY=1;entryDx=0;entryDy=0;" edge="1" parent="1" source="O-G9n-qDXh0_fqaKKesa-86" target="O-G9n-qDXh0_fqaKKesa-257">
          <mxGeometry width="160" relative="1" as="geometry">
            <mxPoint x="590" y="340" as="sourcePoint" />
            <mxPoint x="750" y="340" as="targetPoint" />
          </mxGeometry>
        </mxCell>
        <mxCell id="O-G9n-qDXh0_fqaKKesa-264" value="0..*" style="edgeLabel;html=1;align=center;verticalAlign=middle;resizable=0;points=[];" vertex="1" connectable="0" parent="O-G9n-qDXh0_fqaKKesa-263">
          <mxGeometry x="-0.1459" y="4" relative="1" as="geometry">
            <mxPoint x="-19" y="-7" as="offset" />
          </mxGeometry>
        </mxCell>
        <mxCell id="O-G9n-qDXh0_fqaKKesa-265" value="" style="endArrow=diamondThin;endFill=0;endSize=24;html=1;rounded=0;entryX=0;entryY=0.5;entryDx=0;entryDy=0;exitX=1;exitY=0.5;exitDx=0;exitDy=0;" edge="1" parent="1" source="O-G9n-qDXh0_fqaKKesa-257" target="O-G9n-qDXh0_fqaKKesa-218">
          <mxGeometry width="160" relative="1" as="geometry">
            <mxPoint x="590" y="350" as="sourcePoint" />
            <mxPoint x="750" y="350" as="targetPoint" />
          </mxGeometry>
        </mxCell>
        <mxCell id="O-G9n-qDXh0_fqaKKesa-266" value="0..*" style="edgeLabel;html=1;align=center;verticalAlign=middle;resizable=0;points=[];" vertex="1" connectable="0" parent="O-G9n-qDXh0_fqaKKesa-265">
          <mxGeometry x="-0.3915" y="3" relative="1" as="geometry">
            <mxPoint x="4" y="-7" as="offset" />
          </mxGeometry>
        </mxCell>
        <mxCell id="O-G9n-qDXh0_fqaKKesa-267" value="" style="endArrow=diamondThin;endFill=0;endSize=24;html=1;rounded=0;entryX=0;entryY=0.5;entryDx=0;entryDy=0;exitX=0.75;exitY=1;exitDx=0;exitDy=0;" edge="1" parent="1" source="O-G9n-qDXh0_fqaKKesa-257" target="O-G9n-qDXh0_fqaKKesa-83">
          <mxGeometry width="160" relative="1" as="geometry">
            <mxPoint x="590" y="350" as="sourcePoint" />
            <mxPoint x="750" y="350" as="targetPoint" />
          </mxGeometry>
        </mxCell>
        <mxCell id="O-G9n-qDXh0_fqaKKesa-268" value="0..*" style="edgeLabel;html=1;align=center;verticalAlign=middle;resizable=0;points=[];" vertex="1" connectable="0" parent="O-G9n-qDXh0_fqaKKesa-267">
          <mxGeometry x="0.363" y="1" relative="1" as="geometry">
            <mxPoint x="-10" y="9" as="offset" />
          </mxGeometry>
        </mxCell>
      </root>
    </mxGraphModel>
  </diagram>
</mxfile>
